<svg xmlns="http://www.w3.org/2000/svg" xmlns:xlink="http://www.w3.org/1999/xlink" width="1000" zoomAndPan="magnify" viewBox="0 0 750 374.999991" height="500" preserveAspectRatio="xMidYMid meet" version="1.0"><defs><g/><clipPath id="95721d472e"><path d="M 0 76.164062 L 225 76.164062 L 225 298.914062 L 0 298.914062 Z M 0 76.164062 " clip-rule="nonzero"/></clipPath></defs><g clip-path="url(#95721d472e)"><path fill="#f4f4f4" d="M 224.964844 169.078125 L 224.964844 206.273438 C 224.964844 208.390625 223.246094 210.105469 221.128906 210.105469 L 7.230469 210.105469 C 7.230469 212.5 7.230469 214.898438 7.230469 217.296875 L 7.230469 218.730469 L 141.667969 218.730469 C 143.785156 218.730469 145.503906 220.445312 145.503906 222.5625 L 145.503906 259.757812 C 145.503906 261.871094 143.785156 263.589844 141.667969 263.589844 L 7.230469 263.589844 C 7.230469 265.503906 7.230469 267.417969 7.230469 269.335938 C 7.230469 278 7.230469 286.660156 7.230469 295.324219 C 7.230469 297.308594 5.617188 298.914062 3.632812 298.914062 C 1.648438 298.914062 0.0390625 297.308594 0.0390625 295.324219 L 0.0390625 161.664062 C 0.0390625 161.664062 0.0390625 161.660156 0.0390625 161.660156 C 0.0390625 161.660156 0.0390625 161.65625 0.0390625 161.65625 L 0.0390625 79.753906 C 0.0390625 77.769531 1.648438 76.164062 3.632812 76.164062 C 5.617188 76.164062 7.230469 77.769531 7.230469 79.753906 C 7.230469 88.511719 7.230469 97.273438 7.230469 106.03125 C 7.230469 107.960938 7.230469 109.890625 7.230469 111.820312 C 7.335938 111.800781 7.445312 111.78125 7.558594 111.777344 L 181.492188 111.777344 C 183.609375 111.777344 185.328125 113.492188 185.328125 115.609375 L 185.328125 152.796875 C 185.328125 154.914062 183.609375 156.628906 181.492188 156.628906 L 7.230469 156.628906 L 7.230469 158.066406 C 7.230469 160.460938 7.230469 162.859375 7.230469 165.257812 L 184.933594 165.257812 C 185 165.257812 185.070312 165.25 185.136719 165.25 L 221.128906 165.25 C 223.246094 165.25 224.964844 166.964844 224.964844 169.078125 Z M 224.964844 169.078125 " fill-opacity="1" fill-rule="nonzero"/></g><g fill="#f4f4f4" fill-opacity="1"><g transform="translate(236.630924, 270.552729)"><g><path d="M 67.125 -141.40625 C 81.4375 -141.40625 93.734375 -138.84375 104.015625 -133.71875 C 114.304688 -128.59375 122.238281 -120.773438 127.8125 -110.265625 C 133.394531 -99.753906 136.1875 -86.566406 136.1875 -70.703125 C 136.1875 -54.835938 133.394531 -41.648438 127.8125 -31.140625 C 122.238281 -20.628906 114.304688 -12.8125 104.015625 -7.6875 C 93.734375 -2.5625 81.4375 0 67.125 0 L 21.375 0 L 21.375 -141.40625 Z M 65.484375 -14.125 C 77.285156 -14.125 87.050781 -15.960938 94.78125 -19.640625 C 102.519531 -23.316406 108.390625 -29.3125 112.390625 -37.625 C 116.390625 -45.945312 118.390625 -56.972656 118.390625 -70.703125 C 118.390625 -84.503906 116.390625 -95.546875 112.390625 -103.828125 C 108.390625 -112.117188 102.519531 -118.101562 94.78125 -121.78125 C 87.050781 -125.457031 77.285156 -127.296875 65.484375 -127.296875 L 38.015625 -127.296875 L 38.015625 -14.125 Z M 65.484375 -14.125 "/></g></g><g transform="translate(386.941139, 270.552729)"><g><path d="M 71.96875 -141.40625 C 81.695312 -141.40625 90.046875 -139.664062 97.015625 -136.1875 C 103.984375 -132.707031 109.285156 -127.726562 112.921875 -121.25 C 116.566406 -114.769531 118.390625 -107.144531 118.390625 -98.375 C 118.390625 -89.601562 116.566406 -81.992188 112.921875 -75.546875 C 109.285156 -69.097656 103.984375 -64.113281 97.015625 -60.59375 C 90.046875 -57.082031 81.695312 -55.328125 71.96875 -55.328125 L 38.015625 -55.328125 L 38.015625 0 L 21.375 0 L 21.375 -141.40625 Z M 71.484375 -69.546875 C 91.148438 -69.546875 100.984375 -79.15625 100.984375 -98.375 C 100.984375 -117.65625 91.148438 -127.296875 71.484375 -127.296875 L 38.015625 -127.296875 L 38.015625 -69.546875 Z M 71.484375 -69.546875 "/></g></g><g transform="translate(515.875191, 270.552729)"><g><path d="M 61.234375 2.03125 C 51.171875 2.03125 42.414062 -0.09375 34.96875 -4.34375 C 27.519531 -8.601562 21.78125 -14.875 17.75 -23.15625 C 13.71875 -31.445312 11.703125 -41.492188 11.703125 -53.296875 C 11.703125 -65.097656 13.71875 -75.15625 17.75 -83.46875 C 21.78125 -91.789062 27.519531 -98.078125 34.96875 -102.328125 C 42.414062 -106.585938 51.171875 -108.71875 61.234375 -108.71875 C 71.285156 -108.71875 80.035156 -106.585938 87.484375 -102.328125 C 94.929688 -98.078125 100.671875 -91.789062 104.703125 -83.46875 C 108.734375 -75.15625 110.75 -65.097656 110.75 -53.296875 C 110.75 -41.492188 108.734375 -31.445312 104.703125 -23.15625 C 100.671875 -14.875 94.929688 -8.601562 87.484375 -4.34375 C 80.035156 -0.09375 71.285156 2.03125 61.234375 2.03125 Z M 61.234375 -12.09375 C 71.867188 -12.09375 80.003906 -15.441406 85.640625 -22.140625 C 91.285156 -28.847656 94.109375 -39.234375 94.109375 -53.296875 C 94.109375 -67.421875 91.285156 -77.832031 85.640625 -84.53125 C 80.003906 -91.238281 71.867188 -94.59375 61.234375 -94.59375 C 50.585938 -94.59375 42.425781 -91.222656 36.75 -84.484375 C 31.082031 -77.742188 28.25 -67.347656 28.25 -53.296875 C 28.25 -39.234375 31.082031 -28.847656 36.75 -22.140625 C 42.425781 -15.441406 50.585938 -12.09375 61.234375 -12.09375 Z M 61.234375 -12.09375 "/></g></g><g transform="translate(638.328686, 270.552729)"><g><path d="M 42.46875 2.03125 C 34.914062 2.03125 28.976562 -0.109375 24.65625 -4.390625 C 20.34375 -8.679688 18.1875 -15.082031 18.1875 -23.59375 L 18.1875 -149.53125 L 33.953125 -149.53125 L 33.953125 -24.671875 C 33.953125 -20.210938 34.804688 -17 36.515625 -15.03125 C 38.222656 -13.070312 40.882812 -12.09375 44.5 -12.09375 C 46.6875 -12.09375 48.910156 -12.445312 51.171875 -13.15625 L 52.515625 -12.765625 L 54.359375 -0.390625 C 53.203125 0.390625 51.539062 0.988281 49.375 1.40625 C 47.21875 1.820312 44.914062 2.03125 42.46875 2.03125 Z M 42.46875 2.03125 "/></g></g><g transform="translate(696.363518, 270.552729)"><g><path d="M 42.46875 2.03125 C 34.914062 2.03125 28.976562 -0.109375 24.65625 -4.390625 C 20.34375 -8.679688 18.1875 -15.082031 18.1875 -23.59375 L 18.1875 -149.53125 L 33.953125 -149.53125 L 33.953125 -24.671875 C 33.953125 -20.210938 34.804688 -17 36.515625 -15.03125 C 38.222656 -13.070312 40.882812 -12.09375 44.5 -12.09375 C 46.6875 -12.09375 48.910156 -12.445312 51.171875 -13.15625 L 52.515625 -12.765625 L 54.359375 -0.390625 C 53.203125 0.390625 51.539062 0.988281 49.375 1.40625 C 47.21875 1.820312 44.914062 2.03125 42.46875 2.03125 Z M 42.46875 2.03125 "/></g></g></g></svg>